<svg width="12" height="12" viewBox="0 0 12 12" fill="none" xmlns="http://www.w3.org/2000/svg">
<g id="foreign.svg">
<path id="Union" fill-rule="evenodd" clip-rule="evenodd" d="M9.47953 1.55276H7.00239C6.62337 1.55276 6.3161 1.24248 6.3161 0.859715C6.3161 0.476955 6.62337 0.166666 7.00239 0.166666H11.1472C11.5026 0.166666 11.7948 0.439381 11.83 0.788855C11.8323 0.812153 11.8335 0.835793 11.8335 0.859715V4.99103C11.8335 5.37379 11.5263 5.68408 11.1472 5.68408C10.7682 5.68408 10.4609 5.37379 10.4609 4.99103V2.52192L5.75262 7.27662C5.48461 7.54727 5.05008 7.54727 4.78206 7.27662C4.51405 7.00597 4.51405 6.56715 4.78206 6.2965L9.47953 1.55276Z" fill="#007AFF"/>
<path id="Union_2" fill-rule="evenodd" clip-rule="evenodd" d="M1.54614 10.4353L9.13255 10.4353C9.51345 10.4353 9.82223 10.744 9.82223 11.1249C9.82223 11.5058 9.51345 11.8146 9.13255 11.8146L0.856425 11.8146H0.166748V10.4353H0.166786V3.35305C0.166786 2.97216 0.475565 2.66338 0.856463 2.66338C1.23736 2.66338 1.54614 2.97216 1.54614 3.35305V10.4353Z" fill="#007AFF"/>
</g>
</svg>
