<svg width="12" height="12" viewBox="0 0 12 12" fill="none" xmlns="http://www.w3.org/2000/svg">
<g id="Question" clip-path="url(#clip0_90_176)">
<g id="Group">
<g id="Group_2">
<path id="Vector" d="M6 0C2.6838 0 0 2.6835 0 6C0 9.31615 2.6835 12 6 12C9.3162 12 12 9.3165 12 6C12 2.6838 9.3165 0 6 0ZM6 11.1628C3.15323 11.1628 0.837211 8.84679 0.837211 6C0.837211 3.15321 3.15323 0.837211 6 0.837211C8.84679 0.837211 11.1628 3.15321 11.1628 6C11.1628 8.84679 8.84679 11.1628 6 11.1628Z" fill="#333333"/>
</g>
</g>
<g id="Group_3">
<g id="Group_4">
<path id="Vector_2" d="M5.82216 7.59213C5.49045 7.59213 5.22192 7.86855 5.22192 8.20024C5.22192 8.52408 5.48255 8.8084 5.82216 8.8084C6.16177 8.8084 6.43027 8.52408 6.43027 8.20024C6.43027 7.86855 6.15385 7.59213 5.82216 7.59213Z" fill="#333333"/>
</g>
</g>
<g id="Group_5">
<g id="Group_6">
<path id="Vector_3" d="M5.92502 2.98755C4.8588 2.98755 4.36914 3.6194 4.36914 4.04587C4.36914 4.35388 4.62977 4.49606 4.843 4.49606C5.26949 4.49606 5.09575 3.8879 5.90132 3.8879C6.2962 3.8879 6.61213 4.06167 6.61213 4.42497C6.61213 4.85144 6.16984 5.09627 5.90922 5.3174C5.68016 5.51481 5.38007 5.83865 5.38007 6.51787C5.38007 6.92854 5.49065 7.04702 5.81444 7.04702C6.20141 7.04702 6.2804 6.87328 6.2804 6.72318C6.2804 6.31251 6.2883 6.07558 6.72269 5.73597C6.93592 5.57013 7.60722 5.03306 7.60722 4.29067C7.60722 3.54829 6.93592 2.98755 5.92502 2.98755Z" fill="#333333"/>
</g>
</g>
</g>
<defs>
<clipPath id="clip0_90_176">
<rect width="12" height="12" fill="white"/>
</clipPath>
</defs>
</svg>
