<svg xmlns="http://www.w3.org/2000/svg" width="72" height="72" viewBox="0 0 72 72" fill="none">
  <rect x="0.666667" y="0.666667" width="70.6667" height="70.6667" rx="35.3333" fill="white"/>
  <rect x="0.666667" y="0.666667" width="70.6667" height="70.6667" rx="35.3333" stroke="#DCDCDC" stroke-width="1.33333"/>
  <path d="M9.83157 30.6885C9.66485 31.2144 9.45964 31.9231 9.32666 32.4611C9.41899 32.0884 9.59049 31.74 9.82949 31.4394C10.0685 31.1389 10.3694 30.8934 10.7118 30.7196C11.3894 29.8568 12.2551 29.1601 13.2429 28.6826C14.2306 28.2051 15.3144 27.9594 16.4115 27.9643V27.944C12.3176 26.7763 11.0472 28.1134 10.6922 28.7418C10.3561 29.3674 10.0688 30.0181 9.83291 30.6879" fill="#007AFF"/>
  <path d="M14.075 24.4426L13.4729 25.0164C14.1655 24.4521 15.3075 24.583 17.0659 25.4301C17.4476 24.7513 17.9313 24.1353 18.5003 23.6036C17.6667 23.0001 16.8216 22.4743 16.2849 22.7214C15.507 23.24 14.7681 23.8151 14.0743 24.4419" fill="#007AFF"/>
  <path d="M22.4882 19.7378C21.8631 19.966 21.0308 20.2704 20.4119 20.5215C20.7358 20.8626 21.0269 21.2335 21.2813 21.6292C22.2144 21.1277 23.1848 20.6989 24.1838 20.3467C24.0157 19.6528 23.9745 19.3065 24.1885 19.2188C23.6775 19.3733 22.9931 19.5643 22.4868 19.7398" fill="#007AFF"/>
  <path d="M32.6395 17.8417C31.6884 17.9187 30.4214 18.0361 29.473 18.1468C28.9776 18.269 28.7589 18.4445 28.5132 19.1863C29.8064 18.9425 31.112 18.7694 32.4241 18.6679C32.6186 18.3972 32.8736 18.1757 33.1688 18.0209C33.464 17.8661 33.7912 17.7823 34.1245 17.7762L32.6395 17.8437" fill="#007AFF"/>
  <path d="M43.2044 18.4081C42.3148 18.2731 41.1281 18.1057 40.2344 18.0031C39.3418 17.8977 38.4405 18.1102 37.689 18.6032C39.052 18.6731 40.4104 18.8149 41.7585 19.0278C42.7661 18.5968 43.8852 18.4996 44.952 18.7504C44.4275 18.6471 43.7316 18.4959 43.2044 18.4129" fill="#007AFF"/>
  <path d="M52.7363 21.4008C52.0761 21.097 51.1953 20.6988 50.5257 20.4227C49.2065 19.8801 47.7509 19.7621 46.3616 20.0852C47.4484 20.4186 48.5117 20.8245 49.5442 21.3002C51.3647 21.0799 53.2046 21.5071 54.7417 22.5071C54.1437 22.1649 53.3478 21.7018 52.7329 21.4008" fill="#007AFF"/>
  <path d="M62.1962 31.2389C61.7502 29.9728 61.1358 28.7725 60.3697 27.6702L59.8972 27.0256C57.775 24.4444 55.6359 23.3009 52.7422 23.2024C53.4215 23.7152 54.0337 24.3111 54.5647 24.9763C59.374 25.6513 62.6843 29.8498 62.9975 35.671C62.9576 34.1614 62.6865 32.6669 62.1935 31.2396" fill="#007AFF"/>
  <path d="M55.3225 49.0741C56.2416 48.483 57.1127 47.8205 57.928 47.0929C58.2351 46.7966 58.6469 46.4051 58.9405 46.0946C64.9392 39.1934 62.2136 29.2345 55.7727 27.4288C55.8418 27.7427 55.8791 28.0627 55.8841 28.384V28.5554C55.8776 28.872 55.8398 29.1872 55.7714 29.4964C62.6618 32.5838 61.9848 44.9053 54.6738 49.4716L55.3205 49.0747" fill="#007AFF"/>
  <path d="M46.3131 52.7032C47.2102 52.473 48.4016 52.1429 49.2913 51.8729C58.1108 48.5816 59.5175 35.1424 54.567 31.9098C54.0353 32.558 53.4228 33.1355 52.7446 33.6284C56.9296 38.2136 52.6406 51.1675 44.7795 53.0278L46.3118 52.7038" fill="#007AFF"/>
  <path d="M36.0494 53.7758C36.881 53.7684 37.9907 53.7569 38.8223 53.7245C46.1481 52.9733 51.3618 39.617 49.5474 35.4368C48.5137 35.8841 47.4503 36.2594 46.3648 36.56C46.3479 41.9026 39.1045 53.84 33.9097 53.705C34.5516 53.7279 35.4075 53.7725 36.0487 53.7725" fill="#007AFF"/>
  <path d="M25.4244 52.3989C26.2425 52.5947 27.3367 52.8451 28.1595 53.0118C31.2159 53.2352 38.9129 42.9327 41.7553 37.4868C40.4015 37.6604 39.0395 37.7625 37.675 37.7926C35.4562 39.931 29.6013 46.6567 28.4504 47.9851C25.4872 51.4006 24.3856 52.0486 23.9846 51.9905L25.4244 52.3996" fill="#007AFF"/>
  <path d="M16.4948 48.5418C17.3818 49.1325 18.3062 49.6648 19.2623 50.1355L19.3406 50.174C19.5046 49.3053 26.7892 40.6653 32.4133 37.5738C31.102 37.4339 29.7991 37.2232 28.5105 36.9426C21.7915 39.4995 14.9329 47.3228 16.1134 48.2826L16.4914 48.5418" fill="#007AFF"/>
  <path d="M11.6351 43.8675C11.953 44.2921 12.3823 44.8564 12.7205 45.2593C11.2072 42.9697 17.5879 37.0405 24.1901 35.6581C23.1897 35.2758 22.2195 34.8189 21.2876 34.2913C15.2126 34.9467 9.42989 39.2188 10.6192 42.178C10.9108 42.6964 11.301 43.3862 11.6371 43.8655" fill="#007AFF"/>
  <path d="M9.00146 35.4817V35.7706C9.02779 36.2721 9.06895 36.9397 9.12498 37.4371C8.96163 34.185 13.935 32.0837 18.5014 32.2329C17.9319 31.6845 17.448 31.0538 17.0657 30.3618C13.2054 29.8697 11.0953 30.8586 10.0038 31.7732C9.36913 32.9075 9.02522 34.1814 9.0028 35.481" fill="#007AFF"/>
</svg>