<svg width="48" height="42" viewBox="0 0 48 42" fill="none" xmlns="http://www.w3.org/2000/svg">
<g id="TOS 1" clip-path="url(#clip0_132_576)">
<path id="&#237;&#140;&#168;&#236;&#138;&#164; 231" d="M32.8823 14.1734L28.0562 21.9245H32.7844L36.9274 13.9679L28.1817 0H11.9996L10.1426 3.21522H26.4371L32.8823 14.1734Z" fill="#2A72E5"/>
<path id="&#237;&#140;&#168;&#236;&#138;&#164; 232" d="M13.4384 16.4136L22.7318 16.5212L20.8471 12.9489L11.8797 12.9864L3.65576 27.106L12.0003 41.5631H15.9134L7.42369 27.6114L13.4384 16.4136Z" fill="#2A72E5"/>
<path id="&#237;&#140;&#168;&#236;&#138;&#164; 233" d="M34.7019 25.0957H25.2715L27.0911 28.5717H36.0584L44.3492 14.4717L36.0063 0H31.9302L40.5715 13.8196L34.7019 25.0957Z" fill="#2A72E5"/>
<path id="&#237;&#140;&#168;&#236;&#138;&#164; 234" d="M22.756 9.77118L26.9478 17.7L29.1685 14.1342L24.6196 6.3913H8.31522L0 20.7831L1.81957 23.9348L10.0435 9.81684L22.756 9.77118Z" fill="#2A72E5"/>
<path id="&#237;&#140;&#168;&#236;&#138;&#164; 235" d="M15.0844 27.3816L19.8893 19.6663L15.3241 19.6125L11.085 27.5169L19.635 41.568H35.9996L37.8632 38.3397H21.5295L15.0844 27.3816Z" fill="#2A72E5"/>
<path id="&#237;&#140;&#168;&#236;&#138;&#164; 236" d="M46.1853 17.6396L37.8863 31.7543H25.169L21.026 23.8418L18.7939 27.4288L23.3429 35.1619H39.7027L48.0032 20.7831L46.1853 17.6396Z" fill="#2A72E5"/>
</g>
<defs>
<clipPath id="clip0_132_576">
<rect width="48" height="41.5696" fill="white"/>
</clipPath>
</defs>
</svg>
